<svg xmlns="http://www.w3.org/2000/svg" width="100" height="100" viewBox="0 0 100 100">
  <path fill="#FBAB43" fill-rule="evenodd" d="M76.9107344,49.989375 L83.0179844,55.9664688 C84.8377813,57.6893125 83.9905703,60.7526328 81.6016719,61.3239922 L73.2809688,63.4476641 L75.6265703,71.6840313 C76.2893047,74.0526094 74.0560625,76.2879766 71.6872188,75.6247109 L63.4536406,73.2783125 L61.3307656,81.6018047 C60.754625,84.0128828 57.6352578,84.8100234 55.9751016,83.0186484 L50,76.9091406 L44.0246328,83.0186484 C42.3473438,84.7916953 39.2585234,84.0687969 38.6689688,81.6018047 L36.5460937,73.2783125 L28.3125156,75.6247109 C25.9442031,76.2877109 23.7102969,74.0531406 24.3731641,71.6840313 L26.7187656,63.4476641 L18.3980625,61.3239922 C16.0100937,60.7528984 15.1611562,57.6899766 16.98175,55.9664688 L23.0891328,49.989375 L16.98175,44.0121484 C15.1619531,42.2894375 16.0091641,39.2259844 18.3981953,38.6547578 L26.7188984,36.5310859 L24.3732969,28.2947188 C23.7105625,25.9261406 25.9436719,23.6907734 28.3126484,24.3540391 L36.5463594,26.7004375 L38.6692344,18.3769453 C39.2374063,15.9993359 42.3474766,15.1869219 44.0248984,16.9601016 L50,23.1147656 L55.9752344,16.9599688 C57.6719141,15.1664688 60.7691016,16.0261641 61.3308984,18.3768125 L63.4537734,26.7003047 L71.6873516,24.3539063 C74.0556641,23.6909063 76.2895703,25.9254766 75.6267031,28.2945859 L73.2811016,36.5309531 L81.6018047,38.654625 C83.9897734,39.2257188 84.8387109,42.2886406 83.0181172,44.0121484 L76.9107344,49.989375 Z M50.5,68 C60.1649831,68 68,60.1649831 68,50.5 C68,40.8350169 60.1649831,33 50.5,33 C40.8350169,33 33,40.8350169 33,50.5 C33,60.1649831 40.8350169,68 50.5,68 Z"/>
</svg>
