<svg xmlns="http://www.w3.org/2000/svg" xmlns:xlink="http://www.w3.org/1999/xlink" width="100" height="100" viewBox="0 0 100 100">
  <defs>
    <path id="12-a" d="M43.3928027,22.875 L59.0514551,22.875 C59.6994609,25.3077324 60.0467559,27.8631797 60.0467559,30.5 C60.0467559,33.1368203 59.6994609,35.6922676 59.0514551,38.125 L43.3928027,38.125 C44.0068535,32.9961152 43.9812383,27.7900273 43.3928027,22.875 Z M22.0665117,41.9375 C23.3386953,48.3329687 26.0187637,55.3424883 30.421248,60.0459219 C30.4475781,60.046041 30.4736699,60.046875 30.5,60.046875 C30.5263301,60.046875 30.5524219,60.0459219 30.578752,60.0459219 C34.9883848,55.3347441 37.6636875,48.3208164 38.9334883,41.9375 L22.0665117,41.9375 Z M42.8124687,19.0625 L57.750916,19.0625 C53.9471133,10.0106719 45.76525,3.25313477 35.8553711,1.43862305 C39.4579453,6.5759668 41.6719355,12.9156777 42.8124687,19.0625 Z M39.5539727,22.875 L21.4460273,22.875 C20.8099355,27.8686602 20.8092207,33.125502 21.4460273,38.125 L39.5540918,38.125 C40.1901836,33.1312207 40.1908984,27.874498 39.5539727,22.875 Z M18.1875312,41.9375 L3.24908398,41.9375 C7.05276758,50.9893281 15.2346309,57.7468652 25.1445098,59.561377 C21.5409824,54.422127 19.327707,48.0821777 18.1875312,41.9375 Z M42.8124688,41.9375 C41.6716973,48.085752 39.4571113,54.4251055 35.8553711,59.561377 C45.76525,57.7468652 53.9471133,50.9893281 57.7507969,41.9375 L42.8124688,41.9375 Z M38.9334883,19.0625 C37.6613047,12.6670312 34.9811172,5.65751172 30.578752,0.954078125 C30.5524219,0.954078125 30.5263301,0.953125 30.5,0.953125 C30.4736699,0.953125 30.4475781,0.954078125 30.421248,0.954078125 C26.0116152,5.66525586 23.3363125,12.6791836 22.0665117,19.0625 L38.9334883,19.0625 Z M1.94854492,22.875 C1.30041992,25.3077324 0.953125,27.8631797 0.953125,30.5 C0.953125,33.1368203 1.30041992,35.6922676 1.94854492,38.125 L17.6071973,38.125 C17.0187617,33.2099727 16.9931465,28.0038848 17.6071973,22.875 L1.94854492,22.875 Z M18.1875312,19.0625 C19.3283027,12.9146055 21.5426504,6.57537109 25.1446289,1.43862305 C15.23475,3.25313477 7.05288672,10.0106719 3.24908398,19.0625 L18.1875312,19.0625 Z"/>
  </defs>
  <g fill="none" fill-rule="evenodd" transform="translate(20 20)">
    <use fill="#FECD09" fill-rule="nonzero" xlink:href="#12-a"/>
  </g>
</svg>
